<svg width="24" height="24" viewBox="0 0 24 24" fill="none" xmlns="http://www.w3.org/2000/svg" data-reactroot="">
<path stroke-linejoin="round" stroke-linecap="round" stroke-miterlimit="10" stroke-width="1.5" stroke="#4f4cf9" fill="none" d="M12 4C6.48 4 2 8.48 2 14C2 16.25 2.75 18.33 4.01 20H19.99C21.25 18.33 22 16.25 22 14C22 8.48 17.52 4 12 4Z"></path>
<path stroke-linejoin="round" stroke-linecap="round" stroke-miterlimit="10" stroke-width="1.5" stroke="#4f4cf9" d="M12 6V4"></path>
<path stroke-linejoin="round" stroke-linecap="round" stroke-miterlimit="10" stroke-width="1.5" stroke="#4f4cf9" d="M2 14H4"></path>
<path stroke-linejoin="round" stroke-linecap="round" stroke-miterlimit="10" stroke-width="1.5" stroke="#4f4cf9" d="M20 14H22"></path>
<path stroke-linejoin="round" stroke-linecap="round" stroke-miterlimit="10" stroke-width="1.5" stroke="#4f4cf9" d="M8 10L12 15"></path>
<path stroke-linejoin="round" stroke-linecap="round" stroke-miterlimit="10" stroke-width="1.5" stroke="#4f4cf9" d="M12 16C12.5523 16 13 15.5523 13 15C13 14.4477 12.5523 14 12 14C11.4477 14 11 14.4477 11 15C11 15.5523 11.4477 16 12 16Z"></path>
</svg>
